<svg xmlns="http://www.w3.org/2000/svg" width="22.05" height="21" viewBox="0 0 22.05 21">
  <g id="_14-friend" data-name="14-friend" transform="translate(-2 -2)">
    <path id="Path_128" data-name="Path 128" d="M20.3,13A6.3,6.3,0,0,0,14,19.3v5.25a.787.787,0,0,0,.788.788H25.812a.787.787,0,0,0,.788-.788V19.3A6.3,6.3,0,0,0,20.3,13Zm4.725,10.762h-9.45V19.3a4.725,4.725,0,0,1,9.45,0Z" transform="translate(-2.55 -2.338)" fill="#818fa9"/>
    <path id="Path_129" data-name="Path 129" d="M20.938,11.875A3.938,3.938,0,1,0,17,7.938a3.938,3.938,0,0,0,3.938,3.937Zm0-6.3a2.362,2.362,0,1,1-2.363,2.363A2.362,2.362,0,0,1,20.938,5.575Z" transform="translate(-3.188 -2)" fill="#818fa9"/>
    <path id="Path_130" data-name="Path 130" d="M8.937,11.875A3.938,3.938,0,1,0,5,7.938,3.937,3.937,0,0,0,8.937,11.875Zm0-6.3A2.362,2.362,0,1,1,6.575,7.938,2.362,2.362,0,0,1,8.937,5.575Z" transform="translate(-0.637 -2)" fill="#818fa9"/>
    <path id="Path_131" data-name="Path 131" d="M10.663,13H8.3C3.075,13,2,17.921,2,21.4v3.15a.788.788,0,0,0,.788.788h6.3a.788.788,0,1,0,0-1.575H3.575V21.4c0-2.61.7-6.825,4.725-6.825h2.362a.787.787,0,0,0,0-1.575Z" transform="translate(0 -2.338)" fill="#818fa9"/>
  </g>
</svg>
