<?xml version="1.0" encoding="UTF-8" standalone="no"?>
<svg
   xmlns:dc="http://purl.org/dc/elements/1.1/"
   xmlns:cc="http://creativecommons.org/ns#"
   xmlns:rdf="http://www.w3.org/1999/02/22-rdf-syntax-ns#"
   xmlns:svg="http://www.w3.org/2000/svg"
   xmlns="http://www.w3.org/2000/svg"
   xmlns:sodipodi="http://sodipodi.sourceforge.net/DTD/sodipodi-0.dtd"
   xmlns:inkscape="http://www.inkscape.org/namespaces/inkscape"
   width="17.895"
   height="20.877"
   viewBox="0 0 17.895 20.877"
   version="1.1"
   id="svg6"
   sodipodi:docname="connect_orange.svg"
   inkscape:version="1.0.2-2 (e86c870879, 2021-01-15)">
  <metadata
     id="metadata12">
    <rdf:RDF>
      <cc:Work
         rdf:about="">
        <dc:format>image/svg+xml</dc:format>
        <dc:type
           rdf:resource="http://purl.org/dc/dcmitype/StillImage" />
        <dc:title></dc:title>
      </cc:Work>
    </rdf:RDF>
  </metadata>
  <defs
     id="defs10" />
  <sodipodi:namedview
     pagecolor="#ffffff"
     bordercolor="#666666"
     borderopacity="1"
     objecttolerance="10"
     gridtolerance="10"
     guidetolerance="10"
     inkscape:pageopacity="0"
     inkscape:pageshadow="2"
     inkscape:window-width="1366"
     inkscape:window-height="706"
     id="namedview8"
     showgrid="false"
     inkscape:zoom="25.769985"
     inkscape:cx="8.0937939"
     inkscape:cy="12.426824"
     inkscape:window-x="-8"
     inkscape:window-y="-8"
     inkscape:window-maximized="1"
     inkscape:current-layer="svg6" />
  <g
     id="Group_11"
     data-name="Group 11"
     transform="translate(-632 -495)"
     style="fill:#fd5600;fill-opacity:1">
    <path
       id="Path_40"
       data-name="Path 40"
       d="M19.276,7.138a5.138,5.138,0,1,0-5.138,5.138,5.138,5.138,0,0,0,5.138-5.138Zm-8.808,0a3.67,3.67,0,1,1,3.67,3.67,3.67,3.67,0,0,1-3.67-3.67Z"
       transform="translate(625.202 493)"
       fill="#818fa9"
       style="fill:#fd5600;fill-opacity:1" />
    <path
       id="Path_41"
       data-name="Path 41"
       d="M6,22.38v3.428a.734.734,0,0,0,.734.734H17.106a.734.734,0,1,0,0-1.468H7.468V22.38a3.92,3.92,0,0,1,3.912-3.912h3.912a3.906,3.906,0,0,1,1.314.228.734.734,0,1,0,.491-1.38A5.358,5.358,0,0,0,15.3,17H11.38A5.388,5.388,0,0,0,6,22.38Z"
       transform="translate(626 489.335)"
       fill="#818fa9"
       style="fill:#fd5600;fill-opacity:1" />
    <path
       id="Path_42"
       data-name="Path 42"
       d="M27.138,22.2H25.67V20.734a.734.734,0,0,0-1.468,0V22.2H22.734a.734.734,0,0,0,0,1.468H24.2v1.468a.734.734,0,0,0,1.468,0V23.67h1.468a.734.734,0,0,0,0-1.468Z"
       transform="translate(622.022 488.537)"
       fill="#818fa9"
       style="fill:#fd5600;fill-opacity:1" />
  </g>
</svg>
