<?xml version="1.0" encoding="UTF-8" standalone="no"?>
<svg
   xmlns:dc="http://purl.org/dc/elements/1.1/"
   xmlns:cc="http://creativecommons.org/ns#"
   xmlns:rdf="http://www.w3.org/1999/02/22-rdf-syntax-ns#"
   xmlns:svg="http://www.w3.org/2000/svg"
   xmlns="http://www.w3.org/2000/svg"
   xmlns:sodipodi="http://sodipodi.sourceforge.net/DTD/sodipodi-0.dtd"
   xmlns:inkscape="http://www.inkscape.org/namespaces/inkscape"
   width="25.852"
   height="21"
   viewBox="0 0 25.852 21"
   version="1.1"
   id="svg5"
   sodipodi:docname="orange gallery.svg"
   inkscape:version="1.0.2-2 (e86c870879, 2021-01-15)">
  <metadata
     id="metadata11">
    <rdf:RDF>
      <cc:Work
         rdf:about="">
        <dc:format>image/svg+xml</dc:format>
        <dc:type
           rdf:resource="http://purl.org/dc/dcmitype/StillImage" />
        <dc:title></dc:title>
      </cc:Work>
    </rdf:RDF>
  </metadata>
  <defs
     id="defs9" />
  <sodipodi:namedview
     pagecolor="#ffffff"
     bordercolor="#666666"
     borderopacity="1"
     objecttolerance="10"
     gridtolerance="10"
     guidetolerance="10"
     inkscape:pageopacity="0"
     inkscape:pageshadow="2"
     inkscape:window-width="1366"
     inkscape:window-height="706"
     id="namedview7"
     showgrid="false"
     inkscape:zoom="18.115402"
     inkscape:cx="8.8310083"
     inkscape:cy="9.6548553"
     inkscape:window-x="-8"
     inkscape:window-y="-8"
     inkscape:window-maximized="1"
     inkscape:current-layer="Group" />
  <g
     id="Group"
     transform="translate(-2.47 -11.39)">
    <path
       id="Compound_Path"
       data-name="Compound Path"
       d="M 28.322,14.381 A 2.991,2.991 0 0 0 25.33,11.39 H 5.461 A 2.991,2.991 0 0 0 2.47,14.381 V 29.4 a 2.991,2.991 0 0 0 2.991,2.99 H 25.33 A 2.991,2.991 0 0 0 28.322,29.4 Z M 5.462,13.021 H 25.33 a 1.36,1.36 0 0 1 1.36,1.36 v 7.31 l -7.759,4.278 a 0.816,0.816 0 0 1 -0.982,-0.15 L 12.238,19.89 A 2.448,2.448 0 0 0 9.064,19.59 L 4.1,23.081 v -8.7 A 1.36,1.36 0 0 1 5.461,13.022 Z M 25.33,30.758 H 5.461 A 1.36,1.36 0 0 1 4.1,29.4 v -4.353 a 0.816,0.816 0 0 0 0.169,-0.09 l 5.738,-4.044 a 0.816,0.816 0 0 1 1.058,0.1 l 5.689,5.934 A 2.448,2.448 0 0 0 19.7,27.4 l 6.989,-3.845 V 29.4 a 1.36,1.36 0 0 1 -1.36,1.36 z"
       fill="#818fa9"
       inkscape:transform-center-x="5.3545597"
       inkscape:transform-center-y="1.3248395"
       style="fill:#fd5600;fill-opacity:1" />
    <path
       id="Compound_Path-2"
       data-name="Compound Path"
       d="M53.6,31.231a3.38,3.38,0,1,0-3.38-3.38A3.38,3.38,0,0,0,53.6,31.231Zm0-5.132a1.749,1.749,0,1,1-1.749,1.749A1.749,1.749,0,0,1,53.6,26.1Z"
       transform="translate(-34.764 -9.523)"
       fill="#818fa9"
       style="fill:#ff6600" />
  </g>
</svg>
