<?xml version="1.0" encoding="UTF-8" standalone="no"?>
<svg
   xmlns:dc="http://purl.org/dc/elements/1.1/"
   xmlns:cc="http://creativecommons.org/ns#"
   xmlns:rdf="http://www.w3.org/1999/02/22-rdf-syntax-ns#"
   xmlns:svg="http://www.w3.org/2000/svg"
   xmlns="http://www.w3.org/2000/svg"
   xmlns:sodipodi="http://sodipodi.sourceforge.net/DTD/sodipodi-0.dtd"
   xmlns:inkscape="http://www.inkscape.org/namespaces/inkscape"
   width="18.204"
   height="24.05"
   viewBox="0 0 18.204 24.05"
   version="1.1"
   id="svg5"
   sodipodi:docname="location_808087.svg"
   inkscape:version="1.0.2-2 (e86c870879, 2021-01-15)">
  <metadata
     id="metadata11">
    <rdf:RDF>
      <cc:Work
         rdf:about="">
        <dc:format>image/svg+xml</dc:format>
        <dc:type
           rdf:resource="http://purl.org/dc/dcmitype/StillImage" />
        <dc:title></dc:title>
      </cc:Work>
    </rdf:RDF>
  </metadata>
  <defs
     id="defs9" />
  <sodipodi:namedview
     pagecolor="#ffffff"
     bordercolor="#666666"
     borderopacity="1"
     objecttolerance="10"
     gridtolerance="10"
     guidetolerance="10"
     inkscape:pageopacity="0"
     inkscape:pageshadow="2"
     inkscape:window-width="1366"
     inkscape:window-height="706"
     id="namedview7"
     showgrid="false"
     inkscape:zoom="22.370063"
     inkscape:cx="9.1020002"
     inkscape:cy="12.025"
     inkscape:window-x="-8"
     inkscape:window-y="-8"
     inkscape:window-maximized="1"
     inkscape:current-layer="svg5" />
  <g
     id="Capa_2"
     data-name="Capa 2"
     transform="translate(-23.088 -13.93)">
    <path
       id="Path_31"
       data-name="Path 31"
       d="M32.187,15.463A7.569,7.569,0,0,1,39,26.318c-.283.587-4.333,7.022-6,9.712a.87.87,0,0,1-.74.41.887.887,0,0,1-.75-.413c-1.743-2.693-5.872-9.142-6.156-9.742a7.569,7.569,0,0,1,6.829-10.821m0-1.533a9.1,9.1,0,0,0-8.212,13.021c.087.183.357.747,6.236,9.908a2.413,2.413,0,0,0,4.076,0c5.769-9.162,6-9.678,6.1-9.875a9.1,9.1,0,0,0-8.2-13.054Z"
       fill="#b9c2d3"
       style="fill:#808087;fill-opacity:1" />
    <path
       id="Path_32"
       data-name="Path 32"
       d="M40.949,25.78a4.379,4.379,0,1,0,4.379,4.379A4.379,4.379,0,0,0,40.949,25.78Zm0,7.222A2.846,2.846,0,1,1,43.8,30.159,2.846,2.846,0,0,1,40.949,33Z"
       transform="translate(-8.989 -7.901)"
       fill="#b9c2d3"
       style="fill:#808087;fill-opacity:1" />
  </g>
</svg>
