<?xml version="1.0" encoding="UTF-8" standalone="no"?>
<svg
   xmlns:dc="http://purl.org/dc/elements/1.1/"
   xmlns:cc="http://creativecommons.org/ns#"
   xmlns:rdf="http://www.w3.org/1999/02/22-rdf-syntax-ns#"
   xmlns:svg="http://www.w3.org/2000/svg"
   xmlns="http://www.w3.org/2000/svg"
   xmlns:sodipodi="http://sodipodi.sourceforge.net/DTD/sodipodi-0.dtd"
   xmlns:inkscape="http://www.inkscape.org/namespaces/inkscape"
   width="24"
   height="24.122"
   viewBox="0 0 24 24.122"
   version="1.1"
   id="svg5"
   sodipodi:docname="phone_808087.svg"
   inkscape:version="1.0.2-2 (e86c870879, 2021-01-15)">
  <metadata
     id="metadata11">
    <rdf:RDF>
      <cc:Work
         rdf:about="">
        <dc:format>image/svg+xml</dc:format>
        <dc:type
           rdf:resource="http://purl.org/dc/dcmitype/StillImage" />
        <dc:title></dc:title>
      </cc:Work>
    </rdf:RDF>
  </metadata>
  <defs
     id="defs9" />
  <sodipodi:namedview
     pagecolor="#ffffff"
     bordercolor="#666666"
     borderopacity="1"
     objecttolerance="10"
     gridtolerance="10"
     guidetolerance="10"
     inkscape:pageopacity="0"
     inkscape:pageshadow="2"
     inkscape:window-width="1366"
     inkscape:window-height="706"
     id="namedview7"
     showgrid="false"
     inkscape:zoom="22.303292"
     inkscape:cx="12"
     inkscape:cy="12.061"
     inkscape:window-x="-8"
     inkscape:window-y="-8"
     inkscape:window-maximized="1"
     inkscape:current-layer="svg5" />
  <g
     id="Layer_2"
     data-name="Layer 2"
     transform="translate(0.035 -0.017)">
    <g
       id="Layer_1"
       data-name="Layer 1"
       transform="translate(-0.035 0.017)">
      <path
         id="Path_35"
         data-name="Path 35"
         d="M17.885,24.139c-.441-.074-.885-.132-1.322-.225a17.2,17.2,0,0,1-4.642-1.9,24.8,24.8,0,0,1-6.112-4.787A24.494,24.494,0,0,1,.723,9.293,10.323,10.323,0,0,1-.024,5.9,4.086,4.086,0,0,1,1.1,2.775c.676-.692,1.329-1.409,2.056-2.04A2.355,2.355,0,0,1,6.581.781C7.726,1.855,8.833,2.984,9.9,4.133a2.278,2.278,0,0,1,0,3.1C9.331,7.874,8.7,8.459,8.106,9.074c-.055.051-.113.1-.212.187a17.455,17.455,0,0,0,6.881,6.862L16.2,14.678a3.606,3.606,0,0,1,1.287-.965,2.159,2.159,0,0,1,2.352.418q1.8,1.711,3.506,3.519a2.3,2.3,0,0,1,.061,3.066c-.721.849-1.518,1.654-2.326,2.432a3.584,3.584,0,0,1-2.085.93,1.58,1.58,0,0,0-.164.048Zm.357-1.451a2.757,2.757,0,0,0,2.139-.843c.54-.566,1.094-1.12,1.641-1.679a2.693,2.693,0,0,0,.2-.225.984.984,0,0,0-.029-1.415c-.441-.476-.907-.926-1.364-1.387-.6-.6-1.184-1.193-1.785-1.779a.965.965,0,0,0-1.406-.039c-.09.074-.17.158-.254.241-.573.569-1.139,1.145-1.715,1.708A1.091,1.091,0,0,1,14.3,17.5c-.351-.177-.7-.354-1.036-.553a17.835,17.835,0,0,1-4-3.333A14.4,14.4,0,0,1,6.626,9.856a1.222,1.222,0,0,1,.322-1.692c.589-.573,1.219-1.181,1.8-1.8a.92.92,0,0,0,.023-1.348c-.071-.084-.145-.161-.219-.238L5.728,1.942a1.074,1.074,0,0,0-1.747,0c-.6.6-1.174,1.132-1.724,1.734a3.217,3.217,0,0,0-.643.965,4.1,4.1,0,0,0-.029,2.364,14.319,14.319,0,0,0,1.255,3.458,23.619,23.619,0,0,0,3.654,5.311,23.05,23.05,0,0,0,9.226,6.37,8.406,8.406,0,0,0,2.522.531Z"
         transform="translate(0.035 -0.017)"
         fill="#b9c2d3"
         style="fill:#808087;fill-opacity:1" />
    </g>
  </g>
</svg>
