<?xml version="1.0" encoding="UTF-8" standalone="no"?>
<svg
   xmlns:dc="http://purl.org/dc/elements/1.1/"
   xmlns:cc="http://creativecommons.org/ns#"
   xmlns:rdf="http://www.w3.org/1999/02/22-rdf-syntax-ns#"
   xmlns:svg="http://www.w3.org/2000/svg"
   xmlns="http://www.w3.org/2000/svg"
   xmlns:sodipodi="http://sodipodi.sourceforge.net/DTD/sodipodi-0.dtd"
   xmlns:inkscape="http://www.inkscape.org/namespaces/inkscape"
   width="18.668"
   height="20.99"
   viewBox="0 0 18.668 20.99"
   version="1.1"
   id="svg6"
   sodipodi:docname="profile_orange.svg"
   inkscape:version="1.0.2-2 (e86c870879, 2021-01-15)">
  <metadata
     id="metadata12">
    <rdf:RDF>
      <cc:Work
         rdf:about="">
        <dc:format>image/svg+xml</dc:format>
        <dc:type
           rdf:resource="http://purl.org/dc/dcmitype/StillImage" />
        <dc:title></dc:title>
      </cc:Work>
    </rdf:RDF>
  </metadata>
  <defs
     id="defs10" />
  <sodipodi:namedview
     pagecolor="#ffffff"
     bordercolor="#666666"
     borderopacity="1"
     objecttolerance="10"
     gridtolerance="10"
     guidetolerance="10"
     inkscape:pageopacity="0"
     inkscape:pageshadow="2"
     inkscape:window-width="1366"
     inkscape:window-height="706"
     id="namedview8"
     showgrid="false"
     inkscape:zoom="25.631253"
     inkscape:cx="9.3339996"
     inkscape:cy="10.495"
     inkscape:window-x="-8"
     inkscape:window-y="-8"
     inkscape:window-maximized="1"
     inkscape:current-layer="svg6" />
  <g
     id="noun_profile_2146542"
     transform="translate(187.422 160)">
    <g
       id="Group_67"
       data-name="Group 67"
       transform="translate(-187.422 -160)">
      <path
         id="Path_75"
         data-name="Path 75"
         d="M107.894,266.579a10.074,10.074,0,0,0-12.514,0,8.756,8.756,0,0,0-3.08,7.038.8.8,0,0,0,.8.8H110.17a.8.8,0,0,0,.8-.8A8.738,8.738,0,0,0,107.894,266.579Zm-13.963,6.24a7.069,7.069,0,0,1,2.47-5.014,8.486,8.486,0,0,1,10.472,0,7.058,7.058,0,0,1,2.47,5.014Z"
         transform="translate(-92.3 -253.426)"
         fill="#808fa9"
         style="fill:#fd5600;fill-opacity:1" />
      <path
         id="Path_76"
         data-name="Path 76"
         d="M168.87,82.541a5.27,5.27,0,1,0-5.27-5.27A5.276,5.276,0,0,0,168.87,82.541Zm0-8.943A3.673,3.673,0,1,1,165.2,77.27,3.678,3.678,0,0,1,168.87,73.6Z"
         transform="translate(-159.533 -72)"
         fill="#808fa9"
         style="fill:#fd5600;fill-opacity:1" />
    </g>
  </g>
</svg>
