<?xml version="1.0" encoding="UTF-8" standalone="no"?>
<svg
   xmlns:dc="http://purl.org/dc/elements/1.1/"
   xmlns:cc="http://creativecommons.org/ns#"
   xmlns:rdf="http://www.w3.org/1999/02/22-rdf-syntax-ns#"
   xmlns:svg="http://www.w3.org/2000/svg"
   xmlns="http://www.w3.org/2000/svg"
   xmlns:sodipodi="http://sodipodi.sourceforge.net/DTD/sodipodi-0.dtd"
   xmlns:inkscape="http://www.inkscape.org/namespaces/inkscape"
   width="40"
   height="40"
   viewBox="0 0 40 40"
   version="1.1"
   id="svg911"
   sodipodi:docname="QR code_808087.svg"
   inkscape:version="1.0.2-2 (e86c870879, 2021-01-15)">
  <metadata
     id="metadata917">
    <rdf:RDF>
      <cc:Work
         rdf:about="">
        <dc:format>image/svg+xml</dc:format>
        <dc:type
           rdf:resource="http://purl.org/dc/dcmitype/StillImage" />
        <dc:title></dc:title>
      </cc:Work>
    </rdf:RDF>
  </metadata>
  <defs
     id="defs915" />
  <sodipodi:namedview
     pagecolor="#ffffff"
     bordercolor="#666666"
     borderopacity="1"
     objecttolerance="10"
     gridtolerance="10"
     guidetolerance="10"
     inkscape:pageopacity="0"
     inkscape:pageshadow="2"
     inkscape:window-width="1366"
     inkscape:window-height="706"
     id="namedview913"
     showgrid="false"
     inkscape:zoom="13.45"
     inkscape:cx="20"
     inkscape:cy="19.691114"
     inkscape:window-x="-8"
     inkscape:window-y="-8"
     inkscape:window-maximized="1"
     inkscape:current-layer="Group_3" />
  <g
     id="QR_code"
     data-name="QR code"
     transform="translate(-42 -306)">
    <g
       id="Rectangle_4"
       data-name="Rectangle 4"
       transform="translate(42 306)"
       fill="none"
       stroke="#fff"
       stroke-width="2">
      <rect
         width="40"
         height="40"
         rx="20"
         stroke="none"
         id="rect876" />
      <rect
         x="1"
         y="1"
         width="38"
         height="38"
         rx="19"
         fill="none"
         id="rect878" />
    </g>
    <g
       id="Group_3"
       data-name="Group 3"
       transform="translate(154.596 236.596)">
      <path
         id="Path_14"
         data-name="Path 14"
         d="M24.762,0h5.431V3.258H29.107V2.172H28.02V1.086H26.934V2.172H25.848V1.086H24.762Z"
         transform="translate(-120.073 78)"
         fill="#fff"
         style="fill:#808087;fill-opacity:1" />
      <path
         id="Path_15"
         data-name="Path 15"
         d="M0,0V7.6H7.6V0ZM6.517,6.517H1.086V1.086H6.517Z"
         transform="translate(-104 78)"
         fill="#fff"
         style="fill:#808087;fill-opacity:1" />
      <path
         id="Path_16"
         data-name="Path 16"
         d="M43.333,0V7.6h7.6V0ZM49.85,6.517h-5.43V1.086H49.85V6.517Z"
         transform="translate(-132.127 78)"
         fill="#fff"
         style="fill:#808087;fill-opacity:1" />
      <rect
         id="Rectangle_5"
         data-name="Rectangle 5"
         width="3.258"
         height="3.258"
         transform="translate(-101.828 80.172)"
         fill="#fff"
         style="fill:#808087;fill-opacity:1" />
      <rect
         id="Rectangle_6"
         data-name="Rectangle 6"
         width="3.258"
         height="3.258"
         transform="translate(-86.622 80.172)"
         fill="#fff"
         style="fill:#808087;fill-opacity:1" />
      <rect
         id="Rectangle_7"
         data-name="Rectangle 7"
         width="1.086"
         height="1.086"
         transform="translate(-95.311 81.258)"
         fill="#fff"
         style="fill:#808087;fill-opacity:1" />
      <path
         id="Path_17"
         data-name="Path 17"
         d="M30.029,9.286h1.086v1.086H32.2v1.086H27.857V10.372h2.172Z"
         transform="translate(-122.082 71.972)"
         fill="#fff"
         style="fill:#808087;fill-opacity:1" />
      <rect
         id="Rectangle_8"
         data-name="Rectangle 8"
         width="1.086"
         height="1.086"
         transform="translate(-95.311 84.517)"
         fill="#fff"
         style="fill:#808087;fill-opacity:1" />
      <rect
         id="Rectangle_9"
         data-name="Rectangle 9"
         width="1.086"
         height="1.086"
         transform="translate(-93.139 84.517)"
         fill="#fff"
         style="fill:#808087;fill-opacity:1" />
      <path
         id="Path_18"
         data-name="Path 18"
         d="M2.172,24.762H3.258v1.086H4.345V24.762H7.6v1.086H6.517v1.086H5.431V28.02H6.517v1.086H9.775V28.02h1.086v1.086h1.086v1.086h1.086v1.086H11.948v1.086H10.861v1.086h1.086v1.086H14.12V36.71h2.172v2.172H15.206V37.8H14.12v1.086H13.034V35.623H11.948V37.8H9.775V36.71h1.086V34.537H8.689V32.365H9.775V31.279H8.689V30.193H5.431V29.107H4.345V26.934H3.258V28.02H2.172v2.172H1.086V29.107H0V28.02H1.086V26.934H2.172Z"
         transform="translate(-104 61.927)"
         fill="#fff"
         style="fill:#808087;fill-opacity:1" />
      <rect
         id="Rectangle_10"
         data-name="Rectangle 10"
         width="1.086"
         height="2.172"
         transform="translate(-85.536 86.689)"
         fill="#fff"
         style="fill:#808087;fill-opacity:1" />
      <path
         id="Path_19"
         data-name="Path 19"
         d="M59.9,24.762h1.086V28.02H58.81V25.848H59.9Z"
         transform="translate(-142.173 61.927)"
         fill="#fff"
         style="fill:#808087;fill-opacity:1" />
      <rect
         id="Rectangle_11"
         data-name="Rectangle 11"
         width="1.086"
         height="1.086"
         transform="translate(-104 87.775)"
         fill="#fff"
         style="fill:#808087;fill-opacity:1" />
      <rect
         id="Rectangle_12"
         data-name="Rectangle 12"
         width="1.086"
         height="1.086"
         transform="translate(-97.483 88.861)"
         fill="#fff"
         style="fill:#808087;fill-opacity:1" />
      <path
         id="Path_20"
         data-name="Path 20"
         d="M29.269,21.83V20.744H28.183V18.572H27.1v2.172H24.924V19.658H23.838v1.086H22.752V21.83H21.666v1.086h1.086V24h1.086V22.916h2.172V21.83H27.1v1.086H26.011v2.172H27.1v1.086h1.086v1.086h1.086V26.175h1.086V21.83Zm0,3.258H28.183V22.917h1.086Z"
         transform="translate(-118.063 65.945)"
         fill="#fff"
         style="fill:#808087;fill-opacity:1" />
      <rect
         id="Rectangle_13"
         data-name="Rectangle 13"
         width="1.086"
         height="1.086"
         transform="translate(-86.622 88.861)"
         fill="#fff"
         style="fill:#808087;fill-opacity:1" />
      <rect
         id="Rectangle_14"
         data-name="Rectangle 14"
         width="1.086"
         height="1.086"
         transform="translate(-86.622 91.034)"
         fill="#fff"
         style="fill:#808087;fill-opacity:1" />
      <path
         id="Path_21"
         data-name="Path 21"
         d="M59.9,37.143h1.086v5.431H59.9V40.4H58.81V38.229H59.9Z"
         transform="translate(-142.173 53.891)"
         fill="#fff"
         style="fill:#808087;fill-opacity:1" />
      <path
         id="Path_22"
         data-name="Path 22"
         d="M44.419,40.238h1.086V42.41h1.086V40.238h1.086V43.5H45.505v1.086H44.419V42.41H43.333V41.324h1.086Z"
         transform="translate(-132.127 51.882)"
         fill="#fff"
         style="fill:#808087;fill-opacity:1" />
      <path
         id="Path_23"
         data-name="Path 23"
         d="M0,43.333v7.6H7.6v-7.6ZM6.517,49.85H1.086v-5.43H6.517Z"
         transform="translate(-104 49.873)"
         fill="#fff"
         style="fill:#808087;fill-opacity:1" />
      <rect
         id="Rectangle_15"
         data-name="Rectangle 15"
         width="1.086"
         height="2.172"
         transform="translate(-89.88 94.292)"
         fill="#fff"
         style="fill:#808087;fill-opacity:1" />
      <rect
         id="Rectangle_16"
         data-name="Rectangle 16"
         width="3.258"
         height="3.258"
         transform="translate(-101.828 95.378)"
         fill="#fff"
         style="fill:#808087;fill-opacity:1" />
      <path
         id="Path_24"
         data-name="Path 24"
         d="M55.714,49.523H56.8v1.086h1.086V51.7H55.714Z"
         transform="translate(-140.164 45.855)"
         fill="#fff"
         style="fill:#808087;fill-opacity:1" />
      <rect
         id="Rectangle_17"
         data-name="Rectangle 17"
         width="1.086"
         height="1.086"
         transform="translate(-95.311 97.55)"
         fill="#fff"
         style="fill:#808087;fill-opacity:1" />
      <rect
         id="Rectangle_18"
         data-name="Rectangle 18"
         width="1.086"
         height="1.086"
         transform="translate(-86.622 97.55)"
         fill="#fff"
         style="fill:#808087;fill-opacity:1" />
      <rect
         id="Rectangle_19"
         data-name="Rectangle 19"
         width="1.086"
         height="1.086"
         transform="translate(-82.278 97.55)"
         fill="#fff"
         style="fill:#808087;fill-opacity:1" />
      <path
         id="Path_25"
         data-name="Path 25"
         d="M55.714,58.81h2.172V59.9h1.086v1.086H55.714Z"
         transform="translate(-140.164 39.827)"
         fill="#fff"
         style="fill:#808087;fill-opacity:1" />
      <rect
         id="Rectangle_20"
         data-name="Rectangle 20"
         width="1.086"
         height="1.086"
         transform="translate(-86.622 99.722)"
         fill="#fff"
         style="fill:#808087;fill-opacity:1" />
    </g>
  </g>
</svg>
