<?xml version="1.0" encoding="UTF-8" standalone="no"?>
<svg
   xmlns:dc="http://purl.org/dc/elements/1.1/"
   xmlns:cc="http://creativecommons.org/ns#"
   xmlns:rdf="http://www.w3.org/1999/02/22-rdf-syntax-ns#"
   xmlns:svg="http://www.w3.org/2000/svg"
   xmlns="http://www.w3.org/2000/svg"
   xmlns:sodipodi="http://sodipodi.sourceforge.net/DTD/sodipodi-0.dtd"
   xmlns:inkscape="http://www.inkscape.org/namespaces/inkscape"
   width="21.292"
   height="21.163"
   viewBox="0 0 21.292 21.163"
   version="1.1"
   id="svg7"
   sodipodi:docname="video_orange.svg"
   inkscape:version="1.0.2-2 (e86c870879, 2021-01-15)">
  <metadata
     id="metadata13">
    <rdf:RDF>
      <cc:Work
         rdf:about="">
        <dc:format>image/svg+xml</dc:format>
        <dc:type
           rdf:resource="http://purl.org/dc/dcmitype/StillImage" />
        <dc:title></dc:title>
      </cc:Work>
    </rdf:RDF>
  </metadata>
  <defs
     id="defs11" />
  <sodipodi:namedview
     pagecolor="#ffffff"
     bordercolor="#666666"
     borderopacity="1"
     objecttolerance="10"
     gridtolerance="10"
     guidetolerance="10"
     inkscape:pageopacity="0"
     inkscape:pageshadow="2"
     inkscape:window-width="1366"
     inkscape:window-height="706"
     id="namedview9"
     showgrid="false"
     inkscape:zoom="25.421726"
     inkscape:cx="10.646"
     inkscape:cy="11.180721"
     inkscape:window-x="-8"
     inkscape:window-y="-8"
     inkscape:window-maximized="1"
     inkscape:current-layer="Group_55" />
  <g
     id="Group_55"
     data-name="Group 55"
     transform="translate(-9.912 -970.158)">
    <g
       id="noun_play_1940076"
       transform="translate(9.912 970.158)">
      <g
         id="Group_81"
         data-name="Group 81"
         transform="translate(0 0)">
        <path
           id="Path_99"
           data-name="Path 99"
           d="M21.122,2.5H5.192A2.692,2.692,0,0,0,2.5,5.176V20.987a2.692,2.692,0,0,0,2.692,2.676H21.1a2.692,2.692,0,0,0,2.692-2.676V5.176A2.659,2.659,0,0,0,21.122,2.5Zm.942,18.509a.969.969,0,0,1-.965.959H5.192a.969.969,0,0,1-.965-.959V5.176a.969.969,0,0,1,.965-.959H21.1a.969.969,0,0,1,.965.959V21.009Z"
           transform="translate(-2.5 -2.5)"
           fill="#818fa9"
           style="fill:#fd5600;fill-opacity:1" />
        <path
           id="Path_100"
           data-name="Path 100"
           d="M12.291,13.488c-.257.152-.352.1-.352-.2V5.833c0-.3.1-.353.352-.2l6.255,3.707c.261.155.261.288,0,.443ZM18.925,8.7,12.67,4.992a.917.917,0,0,0-1.474.84v7.455a.917.917,0,0,0,1.474.84l6.255-3.707A.942.942,0,0,0,18.925,8.7Z"
           fill="#818fa9"
           stroke="#818fa9"
           stroke-width="0.7"
           fill-rule="evenodd"
           transform="translate(-4.056 1.021)"
           style="fill:#fd5600;fill-opacity:1;stroke:#fd5600;stroke-opacity:1" />
      </g>
    </g>
  </g>
  <path
     style="fill:none;fill-opacity:1;stroke:#7e7056;stroke-width:0.0393364"
     d="M 2.0415722,21.056979 C 1.0758947,20.803924 0.34968784,20.071379 0.10115579,19.099628 0.02723833,18.810614 0.02518207,18.578465 0.02584645,10.597313 0.02660516,1.4828504 0.00738877,2.1264845 0.29650793,1.5317727 0.62091651,0.86447143 1.1479496,0.40619811 1.8936439,0.14300839 L 2.2083354,0.03193935 10.508322,0.02101509 c 9.327163,-0.0122762 8.633846,-0.03349512 9.283398,0.28411772 0.63208,0.30906927 1.104134,0.84402289 1.339123,1.51755889 l 0.116325,0.3334149 0.01029,8.2905064 c 0.01154,9.298594 0.03409,8.574761 -0.287463,9.226084 -0.338253,0.685153 -0.97066,1.190619 -1.733828,1.385805 -0.296585,0.07585 -0.472112,0.07739 -8.606288,0.07527 -8.0232772,-0.0021 -8.3131407,-0.0047 -8.5883018,-0.07679 z M 19.044328,19.379232 c 0.205982,-0.111149 0.350394,-0.267227 0.449186,-0.485474 0.07977,-0.176225 0.08013,-0.213078 0.08099,-8.275755 6.45e-4,-6.0345486 -0.01077,-8.1375775 -0.04479,-8.2511143 C 19.465054,2.1510681 19.23977,1.9054192 19.007175,1.7971106 l -0.19887,-0.092604 H 10.646 2.4836904 L 2.2848208,1.7971106 C 2.0522261,1.9054192 1.8269436,2.1510681 1.7622822,2.3668887 c -0.034017,0.1135368 -0.045432,2.2165657 -0.044788,8.2511143 8.599e-4,8.062677 0.00122,8.09953 0.080992,8.275755 0.1075586,0.237613 0.2520522,0.384465 0.4885225,0.496496 l 0.1966822,0.09318 8.2016461,-0.0097 8.201646,-0.0097 z"
     id="path838" />
  <path
     style="fill:none;fill-opacity:1;stroke:#7e7056;stroke-width:0.0393364"
     d="M 2.5230268,21.057632 C 2.2419301,21.04146 1.9714311,21.002606 1.8543075,20.961576 1.0947737,20.695506 0.4541658,20.044393 0.19256998,19.272589 L 0.08416807,18.952763 v -8.260651 c 0,-6.5448676 0.01048408,-8.3211553 0.05047566,-8.5519521 C 0.20931097,1.7092454 0.48072151,1.2079131 0.83072543,0.85440209 1.1360375,0.54603075 1.4615716,0.34650331 1.9504986,0.16806706 l 0.3191066,-0.1164595 7.7579788,0.00152 c 7.857117,0.0015394 9.062192,0.01850048 9.394164,0.13221994 0.370108,0.12678299 0.721057,0.35381798 1.038862,0.67205671 0.338648,0.33911069 0.510863,0.61873449 0.670957,1.08943199 l 0.09593,0.2820548 -0.0015,7.7128847 c -0.0015,7.6450263 -0.01999,9.0000053 -0.127502,9.3477103 -0.08083,0.261417 -0.351052,0.704372 -0.588546,0.964766 -0.270717,0.296821 -0.708372,0.579354 -1.106442,0.714276 l -0.319826,0.108402 -8.0443,0.0039 C 6.6150161,21.08303 2.7826643,21.07253 2.5230438,21.0576 Z m 16.5623012,-1.65767 c 0.211219,-0.137498 0.39089,-0.347073 0.456375,-0.532332 0.04423,-0.125135 0.05334,-1.543882 0.05334,-8.313195 V 2.3921252 l -0.0862,-0.1610701 C 19.409128,2.0446975 19.20688,1.8561036 18.985797,1.7433156 18.832421,1.6650692 18.761833,1.6644013 10.646,1.6644013 c -8.1158335,0 -8.1864212,6.679e-4 -8.3397969,0.078914 -0.2210828,0.112788 -0.4233309,0.3013819 -0.5230518,0.4877395 l -0.08619,0.1610701 v 8.1623101 c 0,7.694134 0.00397,8.172587 0.069165,8.341493 0.078177,0.202531 0.2878296,0.421515 0.5208814,0.544067 l 0.1573458,0.08274 8.2409825,-0.0096 8.240982,-0.0096 z"
     id="path840" />
</svg>
