<?xml version="1.0" encoding="UTF-8" standalone="no"?>
<svg
   xmlns:dc="http://purl.org/dc/elements/1.1/"
   xmlns:cc="http://creativecommons.org/ns#"
   xmlns:rdf="http://www.w3.org/1999/02/22-rdf-syntax-ns#"
   xmlns:svg="http://www.w3.org/2000/svg"
   xmlns="http://www.w3.org/2000/svg"
   xmlns:sodipodi="http://sodipodi.sourceforge.net/DTD/sodipodi-0.dtd"
   xmlns:inkscape="http://www.inkscape.org/namespaces/inkscape"
   width="24"
   height="24"
   viewBox="0 0 24 24"
   version="1.1"
   id="svg3"
   sodipodi:docname="world_808087.svg"
   inkscape:version="1.0.2-2 (e86c870879, 2021-01-15)">
  <metadata
     id="metadata9">
    <rdf:RDF>
      <cc:Work
         rdf:about="">
        <dc:format>image/svg+xml</dc:format>
        <dc:type
           rdf:resource="http://purl.org/dc/dcmitype/StillImage" />
        <dc:title></dc:title>
      </cc:Work>
    </rdf:RDF>
  </metadata>
  <defs
     id="defs7" />
  <sodipodi:namedview
     pagecolor="#ffffff"
     bordercolor="#666666"
     borderopacity="1"
     objecttolerance="10"
     gridtolerance="10"
     guidetolerance="10"
     inkscape:pageopacity="0"
     inkscape:pageshadow="2"
     inkscape:window-width="1366"
     inkscape:window-height="706"
     id="namedview5"
     showgrid="false"
     inkscape:zoom="22.416667"
     inkscape:cx="12"
     inkscape:cy="12"
     inkscape:window-x="-8"
     inkscape:window-y="-8"
     inkscape:window-maximized="1"
     inkscape:current-layer="svg3" />
  <path
     id="Path_36"
     data-name="Path 36"
     d="M29.05,12.15a9.6,9.6,0,0,0-.7-.75,11.953,11.953,0,0,0-16.7,0,9.6,9.6,0,0,0-.7.75A11.825,11.825,0,0,0,8,20a12.041,12.041,0,0,0,2.9,7.85,9.6,9.6,0,0,0,.7.75A12.041,12.041,0,0,0,20,32a11.87,11.87,0,0,0,8.4-3.45c.25-.25.45-.45.7-.75a11.93,11.93,0,0,0-.05-15.65ZM31,19.5H26.95a15.91,15.91,0,0,0-1.2-5.25,13.119,13.119,0,0,0,2.55-1.5A11.585,11.585,0,0,1,31,19.5ZM20.5,9.45a14.026,14.026,0,0,1,3.8,4.25,11.179,11.179,0,0,1-3.8.7Zm-1,4.95a12.537,12.537,0,0,1-3.8-.7,13.464,13.464,0,0,1,3.8-4.25Zm0,1v4.1H14.1a13.456,13.456,0,0,1,1.15-4.9A13.351,13.351,0,0,0,19.5,15.4Zm0,5.1v4a13.7,13.7,0,0,0-4.3.85,11.944,11.944,0,0,1-1.15-4.85Zm0,5v5.05a15.079,15.079,0,0,1-3.85-4.3A11.462,11.462,0,0,1,19.5,25.5Zm1,0a11.462,11.462,0,0,1,3.85.75,14.443,14.443,0,0,1-3.85,4.3Zm0-1v-4h5.4a11.187,11.187,0,0,1-1.15,4.85A14.588,14.588,0,0,0,20.5,24.5Zm0-5V15.4a14.89,14.89,0,0,0,4.25-.8,13.456,13.456,0,0,1,1.15,4.9Zm4.75-6.15A13.8,13.8,0,0,0,21.8,9.2,10.587,10.587,0,0,1,27.55,12,13.206,13.206,0,0,1,25.25,13.35ZM18.2,9.15a13.671,13.671,0,0,0-3.45,4.15,12.975,12.975,0,0,1-2.3-1.3A11.011,11.011,0,0,1,18.2,9.15Zm-6.45,3.6a13.119,13.119,0,0,0,2.55,1.5,14.992,14.992,0,0,0-1.2,5.25H9A11.32,11.32,0,0,1,11.75,12.75ZM9,20.5h4.05a13.708,13.708,0,0,0,1.2,5.25,13.119,13.119,0,0,0-2.55,1.5A11.393,11.393,0,0,1,9,20.5Zm5.7,6.1a13.442,13.442,0,0,0,3.5,4.2,10.7,10.7,0,0,1-5.8-2.9A20.858,20.858,0,0,1,14.7,26.6Zm7.1,4.25a14.029,14.029,0,0,0,3.5-4.2,12.975,12.975,0,0,1,2.3,1.3A11.235,11.235,0,0,1,21.8,30.85Zm6.5-3.65a13.119,13.119,0,0,0-2.55-1.5,13.5,13.5,0,0,0,1.2-5.25H31A11.145,11.145,0,0,1,28.3,27.2Z"
     transform="translate(-8 -8)"
     fill="#b9c2d3"
     style="fill:#808087;fill-opacity:1" />
</svg>
