<svg xmlns="http://www.w3.org/2000/svg" width="25.852" height="21" viewBox="0 0 25.852 21">
  <g id="Group" transform="translate(-2.47 -11.39)">
    <path id="Compound_Path" data-name="Compound Path" d="M28.322,14.381A2.991,2.991,0,0,0,25.33,11.39H5.461A2.991,2.991,0,0,0,2.47,14.381V29.4A2.991,2.991,0,0,0,5.461,32.39H25.33A2.991,2.991,0,0,0,28.322,29.4Zm-22.86-1.36H25.33a1.36,1.36,0,0,1,1.36,1.36v7.31l-7.759,4.278a.816.816,0,0,1-.982-.15l-5.711-5.929a2.448,2.448,0,0,0-3.174-.3L4.1,23.081v-8.7A1.36,1.36,0,0,1,5.461,13.022ZM25.33,30.758H5.461A1.36,1.36,0,0,1,4.1,29.4V25.047a.816.816,0,0,0,.169-.09l5.738-4.044a.816.816,0,0,1,1.058.1l5.689,5.934A2.448,2.448,0,0,0,19.7,27.4l6.989-3.845V29.4a1.36,1.36,0,0,1-1.36,1.36Z" fill="#818fa9"/>
    <path id="Compound_Path-2" data-name="Compound Path" d="M53.6,31.231a3.38,3.38,0,1,0-3.38-3.38A3.38,3.38,0,0,0,53.6,31.231Zm0-5.132a1.749,1.749,0,1,1-1.749,1.749A1.749,1.749,0,0,1,53.6,26.1Z" transform="translate(-34.764 -9.523)" fill="#818fa9"/>
  </g>
</svg>
