<svg xmlns="http://www.w3.org/2000/svg" width="18.204" height="24.05" viewBox="0 0 18.204 24.05">
  <g id="Capa_2" data-name="Capa 2" transform="translate(-23.088 -13.93)">
    <path id="Path_31" data-name="Path 31" d="M32.187,15.463A7.569,7.569,0,0,1,39,26.318c-.283.587-4.333,7.022-6,9.712a.87.87,0,0,1-.74.41.887.887,0,0,1-.75-.413c-1.743-2.693-5.872-9.142-6.156-9.742a7.569,7.569,0,0,1,6.829-10.821m0-1.533a9.1,9.1,0,0,0-8.212,13.021c.087.183.357.747,6.236,9.908a2.413,2.413,0,0,0,4.076,0c5.769-9.162,6-9.678,6.1-9.875a9.1,9.1,0,0,0-8.2-13.054Z" fill="#b9c2d3"/>
    <path id="Path_32" data-name="Path 32" d="M40.949,25.78a4.379,4.379,0,1,0,4.379,4.379A4.379,4.379,0,0,0,40.949,25.78Zm0,7.222A2.846,2.846,0,1,1,43.8,30.159,2.846,2.846,0,0,1,40.949,33Z" transform="translate(-8.989 -7.901)" fill="#b9c2d3"/>
  </g>
</svg>
