<svg xmlns="http://www.w3.org/2000/svg" width="24.399" height="17.258" viewBox="0 0 24.399 17.258">
  <g id="Group_4" data-name="Group 4" transform="translate(-9 -973.362)">
    <path id="Path_33" data-name="Path 33" d="M11.38,973.362A2.42,2.42,0,0,0,9,975.808v12.358a2.428,2.428,0,0,0,2.38,2.455H31.019a2.428,2.428,0,0,0,2.38-2.455V975.808a2.42,2.42,0,0,0-2.38-2.445H11.38Zm0,1.19H31.019a1.17,1.17,0,0,1,.493.121l-9.577,9.094a1,1,0,0,1-1.451,0l-9.6-9.094a1.17,1.17,0,0,1,.493-.121Zm-1.172,1.116,6.779,6.425-6.667,6.658a1.345,1.345,0,0,1-.13-.586V975.808c0-.048.014-.093.018-.139Zm21.982,0a1.331,1.331,0,0,1,.018.139v12.358a1.34,1.34,0,0,1-.13.577l-6.648-6.658,6.76-6.416Zm-7.625,7.244,6.509,6.518H11.334l6.518-6.509,1.813,1.711a2.246,2.246,0,0,0,3.087,0Z" fill="#b9c2d3"/>
  </g>
</svg>
