<svg xmlns="http://www.w3.org/2000/svg" width="40" height="40" viewBox="0 0 40 40">
  <g id="Mobile" transform="translate(-42 -306)">
    <g id="Rectangle_4" data-name="Rectangle 4" transform="translate(42 306)" fill="none" stroke="#fff" stroke-width="2">
      <rect width="40" height="40" rx="20" stroke="none"/>
      <rect x="1" y="1" width="38" height="38" rx="19" fill="none"/>
    </g>
    <g id="Group_1" data-name="Group 1" transform="translate(23.067 293.731)">
      <circle id="Ellipse_1" data-name="Ellipse 1" cx="0.865" cy="0.865" r="0.865" transform="translate(38.067 40.584)" fill="#fff"/>
      <path id="Path_7" data-name="Path 7" d="M44.765,19.776H33.1a1.968,1.968,0,0,0-1.965,1.965V42.8A1.968,1.968,0,0,0,33.1,44.762H44.765A1.968,1.968,0,0,0,46.731,42.8V21.741A1.968,1.968,0,0,0,44.765,19.776ZM33.1,21.429H44.765a.313.313,0,0,1,.312.312V38.467H32.788V21.741A.313.313,0,0,1,33.1,21.429ZM44.765,43.109H33.1a.313.313,0,0,1-.312-.312v-3.09H45.077V42.8A.313.313,0,0,1,44.765,43.109Z" transform="translate(0 0)" fill="#fff"/>
    </g>
  </g>
</svg>
