<?xml version="1.0" encoding="UTF-8" standalone="no"?>
<svg
   xmlns:dc="http://purl.org/dc/elements/1.1/"
   xmlns:cc="http://creativecommons.org/ns#"
   xmlns:rdf="http://www.w3.org/1999/02/22-rdf-syntax-ns#"
   xmlns:svg="http://www.w3.org/2000/svg"
   xmlns="http://www.w3.org/2000/svg"
   xmlns:sodipodi="http://sodipodi.sourceforge.net/DTD/sodipodi-0.dtd"
   xmlns:inkscape="http://www.inkscape.org/namespaces/inkscape"
   width="17.895"
   height="20.877001"
   viewBox="0 0 17.895 20.877001"
   version="1.1"
   id="svg911"
   sodipodi:docname="QR code_pick.svg"
   inkscape:version="1.0.2-2 (e86c870879, 2021-01-15)">
  <metadata
     id="metadata917">
    <rdf:RDF>
      <cc:Work
         rdf:about="">
        <dc:format>image/svg+xml</dc:format>
        <dc:type
           rdf:resource="http://purl.org/dc/dcmitype/StillImage" />
        <dc:title></dc:title>
      </cc:Work>
    </rdf:RDF>
  </metadata>
  <defs
     id="defs915" />
  <sodipodi:namedview
     pagecolor="#ffffff"
     bordercolor="#666666"
     borderopacity="1"
     objecttolerance="10"
     gridtolerance="10"
     guidetolerance="10"
     inkscape:pageopacity="0"
     inkscape:pageshadow="2"
     inkscape:window-width="1366"
     inkscape:window-height="706"
     id="namedview913"
     showgrid="false"
     inkscape:zoom="13.45"
     inkscape:cx="20"
     inkscape:cy="17.0141"
     inkscape:window-x="-8"
     inkscape:window-y="-8"
     inkscape:window-maximized="1"
     inkscape:current-layer="Group_3"
     inkscape:document-rotation="0" />
  <g
     id="QR_code"
     data-name="QR code"
     transform="translate(-42,-306)">
    <g
       id="Rectangle_4"
       data-name="Rectangle 4"
       transform="translate(42,306)"
       fill="none"
       stroke="#ffffff"
       stroke-width="2">
      <rect
         width="40"
         height="40"
         rx="20"
         stroke="none"
         id="rect876"
         x="0"
         y="0" />
    </g>
    <g
       id="Group_3"
       data-name="Group 3"
       transform="translate(154.596,236.596)">
      <path
         id="Path_14"
         data-name="Path 14"
         d="m -105.73435,69.449814 h 4.26019 v 2.981513 h -0.85188 V 71.43749 h -0.85267 v -0.993838 h -0.85188 v 0.993838 h -0.85188 v -0.993838 h -0.85188 z"
         fill="#fff"
         style="fill:#818fa9;fill-opacity:1;stroke-width:0.847261" />
      <path
         id="Path_15"
         data-name="Path 15"
         d="m -112.55019,69.449814 v 6.955034 h 5.96161 v -6.955034 z m 5.11208,5.963942 h -4.2602 v -4.970104 h 4.2602 z"
         fill="#fff"
         style="fill:#818fa9;fill-opacity:1;stroke-width:0.847261" />
      <path
         id="Path_16"
         data-name="Path 16"
         d="m -100.62228,69.449814 v 6.955034 h 5.961603 v -6.955034 z m 5.112075,5.963942 h -4.259407 v -4.970104 h 4.259407 z"
         fill="#fff"
         style="fill:#818fa9;fill-opacity:1;stroke-width:0.847261" />
      <rect
         id="Rectangle_5"
         data-name="Rectangle 5"
         width="2.555644"
         height="2.9815133"
         fill="#fff"
         style="fill:#818fa9;fill-opacity:1;stroke-width:0.847261"
         x="-110.84643"
         y="71.437492" />
      <rect
         id="Rectangle_6"
         data-name="Rectangle 6"
         width="2.555644"
         height="2.9815133"
         fill="#fff"
         style="fill:#818fa9;fill-opacity:1;stroke-width:0.847261"
         x="-98.918518"
         y="71.437492" />
      <rect
         id="Rectangle_7"
         data-name="Rectangle 7"
         width="0.85188138"
         height="0.99383777"
         fill="#fff"
         style="fill:#818fa9;fill-opacity:1;stroke-width:0.847261"
         x="-105.73435"
         y="72.431328" />
      <path
         id="Path_17"
         data-name="Path 17"
         d="m -103.17871,72.431327 h 0.85189 v 0.993838 h 0.85109 v 0.993838 h -3.40674 v -0.993838 h 1.70376 z"
         fill="#fff"
         style="fill:#818fa9;fill-opacity:1;stroke-width:0.847261" />
      <rect
         id="Rectangle_8"
         data-name="Rectangle 8"
         width="0.85188138"
         height="0.99383777"
         fill="#fff"
         style="fill:#818fa9;fill-opacity:1;stroke-width:0.847261"
         x="-105.73435"
         y="75.413757" />
      <rect
         id="Rectangle_9"
         data-name="Rectangle 9"
         width="0.85188138"
         height="0.99383777"
         fill="#fff"
         style="fill:#818fa9;fill-opacity:1;stroke-width:0.847261"
         x="-104.03059"
         y="75.413757" />
      <path
         id="Path_18"
         data-name="Path 18"
         d="m -110.84643,77.401432 h 0.85188 v 0.993837 h 0.85267 v -0.993837 h 2.5533 v 0.993837 h -0.84953 v 0.993838 h -0.85188 v 0.993838 h 0.85188 v 0.993838 h 2.55564 v -0.993838 h 0.85188 v 0.993838 h 0.85188 v 0.993838 h 0.85189 v 0.993838 h -0.8511 v 0.993837 h -0.85267 v 0.993838 h 0.85188 v 0.993838 h 1.70455 v 1.989506 h 1.703764 v 1.987675 h -0.851884 v -0.990177 h -0.85188 v 0.993838 h -0.85188 v -2.986089 h -0.85188 v 1.992251 h -1.70455 v -0.997498 h 0.85188 v -1.988591 h -1.70376 v -1.987676 h 0.85188 v -0.993837 h -0.85188 v -0.993838 h -2.55564 v -0.993838 h -0.85189 v -1.988591 h -0.85267 v 0.993838 h -0.85188 v 1.987676 h -0.85188 v -0.992923 h -0.85188 v -0.994753 h 0.85188 v -0.993838 h 0.85188 z"
         fill="#fff"
         style="fill:#818fa9;fill-opacity:1;stroke-width:0.847261" />
      <rect
         id="Rectangle_10"
         data-name="Rectangle 10"
         width="0.85188138"
         height="1.9876755"
         fill="#fff"
         style="fill:#818fa9;fill-opacity:1;stroke-width:0.847261"
         x="-98.066635"
         y="77.401428" />
      <path
         id="Path_19"
         data-name="Path 19"
         d="m -95.507067,77.401432 h 0.851881 v 2.981513 h -1.7069 v -1.987676 h 0.855019 z"
         fill="#fff"
         style="fill:#818fa9;fill-opacity:1;stroke-width:0.847261" />
      <rect
         id="Rectangle_11"
         data-name="Rectangle 11"
         width="0.85188138"
         height="0.99383777"
         fill="#fff"
         style="fill:#818fa9;fill-opacity:1;stroke-width:0.847261"
         x="-112.55019"
         y="78.395271" />
      <rect
         id="Rectangle_12"
         data-name="Rectangle 12"
         width="0.85188138"
         height="0.99383777"
         fill="#fff"
         style="fill:#818fa9;fill-opacity:1;stroke-width:0.847261"
         x="-107.43812"
         y="79.389107" />
      <path
         id="Path_20"
         data-name="Path 20"
         d="m -100.62228,78.395269 v -0.993837 h -0.85188 v -1.987676 h -0.84953 v 1.987676 h -1.7069 v -0.993838 h -0.85188 v 0.993838 h -0.85188 v 0.993837 h -0.85188 v 0.993838 h 0.85188 v 0.992008 h 0.85188 v -0.992008 h 1.70376 v -0.993838 h 0.85502 v 0.993838 h -0.85423 v 1.987676 h 0.85423 v 0.993838 h 0.85188 v 0.993838 h 0.85189 v -0.992923 h 0.851877 v -3.976267 z m 0,2.981514 h -0.85188 v -1.986761 h 0.85188 z"
         fill="#fff"
         style="fill:#818fa9;fill-opacity:1;stroke-width:0.847261" />
      <rect
         id="Rectangle_13"
         data-name="Rectangle 13"
         width="0.85188138"
         height="0.99383777"
         fill="#fff"
         style="fill:#818fa9;fill-opacity:1;stroke-width:0.847261"
         x="-98.918518"
         y="79.389107" />
      <rect
         id="Rectangle_14"
         data-name="Rectangle 14"
         width="0.85188138"
         height="0.99383777"
         fill="#fff"
         style="fill:#818fa9;fill-opacity:1;stroke-width:0.847261"
         x="-98.918518"
         y="81.377701" />
      <path
         id="Path_21"
         data-name="Path 21"
         d="m -95.507067,81.377698 h 0.851881 v 4.970104 h -0.851881 v -1.989506 h -0.855019 v -1.98676 h 0.855019 z"
         fill="#fff"
         style="fill:#818fa9;fill-opacity:1;stroke-width:0.847261" />
      <path
         id="Path_22"
         data-name="Path 22"
         d="m -99.770396,82.371536 h 0.851881 v 1.987675 h 0.851881 v -1.987675 h 0.851882 v 2.985174 h -1.703763 v 0.993838 h -0.851881 v -1.991337 h -0.851884 v -0.993837 h 0.851884 z"
         fill="#fff"
         style="fill:#818fa9;fill-opacity:1;stroke-width:0.847261" />
      <path
         id="Path_23"
         data-name="Path 23"
         d="m -112.55019,83.365374 v 6.955034 h 5.96161 v -6.955034 z m 5.11208,5.963942 h -4.2602 v -4.969189 h 4.2602 z"
         fill="#fff"
         style="fill:#818fa9;fill-opacity:1;stroke-width:0.847261" />
      <rect
         id="Rectangle_15"
         data-name="Rectangle 15"
         width="0.85188138"
         height="1.9876755"
         fill="#fff"
         style="fill:#818fa9;fill-opacity:1;stroke-width:0.847261"
         x="-101.47416"
         y="84.359215" />
      <rect
         id="Rectangle_16"
         data-name="Rectangle 16"
         width="2.555644"
         height="2.9815133"
         fill="#fff"
         style="fill:#818fa9;fill-opacity:1;stroke-width:0.847261"
         x="-110.84643"
         y="85.35305" />
      <path
         id="Path_24"
         data-name="Path 24"
         d="m -97.214752,85.353049 h 0.851881 v 0.993838 h 0.851882 v 0.998414 h -1.703763 z"
         fill="#fff"
         style="fill:#818fa9;fill-opacity:1;stroke-width:0.847261" />
      <rect
         id="Rectangle_17"
         data-name="Rectangle 17"
         width="0.85188138"
         height="0.99383777"
         fill="#fff"
         style="fill:#818fa9;fill-opacity:1;stroke-width:0.847261"
         x="-105.73435"
         y="87.340721" />
      <rect
         id="Rectangle_18"
         data-name="Rectangle 18"
         width="0.85188138"
         height="0.99383777"
         fill="#fff"
         style="fill:#818fa9;fill-opacity:1;stroke-width:0.847261"
         x="-98.918518"
         y="87.340721" />
      <rect
         id="Rectangle_19"
         data-name="Rectangle 19"
         width="0.85188138"
         height="0.99383777"
         fill="#fff"
         style="fill:#818fa9;fill-opacity:1;stroke-width:0.847261"
         x="-95.510986"
         y="87.340721" />
      <path
         id="Path_25"
         data-name="Path 25"
         d="m -97.214752,88.335478 h 1.703763 v 0.997498 h 0.851881 v 0.993838 h -2.555644 z"
         fill="#fff"
         style="fill:#818fa9;fill-opacity:1;stroke-width:0.847261" />
      <rect
         id="Rectangle_20"
         data-name="Rectangle 20"
         width="0.85188138"
         height="0.99383777"
         fill="#fff"
         style="fill:#818fa9;fill-opacity:1;stroke-width:0.847261"
         x="-98.918518"
         y="89.3284" />
    </g>
  </g>
</svg>
