<?xml version="1.0" encoding="UTF-8" standalone="no"?>
<svg
   xmlns:dc="http://purl.org/dc/elements/1.1/"
   xmlns:cc="http://creativecommons.org/ns#"
   xmlns:rdf="http://www.w3.org/1999/02/22-rdf-syntax-ns#"
   xmlns:svg="http://www.w3.org/2000/svg"
   xmlns="http://www.w3.org/2000/svg"
   xmlns:sodipodi="http://sodipodi.sourceforge.net/DTD/sodipodi-0.dtd"
   xmlns:inkscape="http://www.inkscape.org/namespaces/inkscape"
   width="21.292"
   height="20.877001"
   viewBox="0 0 21.291999 20.877001"
   version="1.1"
   id="svg911"
   sodipodi:docname="QR code_orange.svg"
   inkscape:version="1.0.2-2 (e86c870879, 2021-01-15)">
  <metadata
     id="metadata917">
    <rdf:RDF>
      <cc:Work
         rdf:about="">
        <dc:format>image/svg+xml</dc:format>
        <dc:type
           rdf:resource="http://purl.org/dc/dcmitype/StillImage" />
        <dc:title></dc:title>
      </cc:Work>
    </rdf:RDF>
  </metadata>
  <defs
     id="defs915" />
  <sodipodi:namedview
     pagecolor="#ffffff"
     bordercolor="#666666"
     borderopacity="1"
     objecttolerance="10"
     gridtolerance="10"
     guidetolerance="10"
     inkscape:pageopacity="0"
     inkscape:pageshadow="2"
     inkscape:window-width="1366"
     inkscape:window-height="706"
     id="namedview913"
     showgrid="false"
     inkscape:zoom="13.45"
     inkscape:cx="10.334572"
     inkscape:cy="16.196256"
     inkscape:window-x="-8"
     inkscape:window-y="-8"
     inkscape:window-maximized="1"
     inkscape:current-layer="Group_3"
     inkscape:document-rotation="0" />
  <g
     id="QR_code"
     data-name="QR code"
     transform="translate(-42,-306)">
    <g
       id="Rectangle_4"
       data-name="Rectangle 4"
       transform="translate(42,306)"
       fill="none"
       stroke="#ffffff"
       stroke-width="2">
      <rect
         width="40"
         height="40"
         rx="20"
         stroke="none"
         id="rect876"
         x="0"
         y="0" />
    </g>
    <g
       id="Group_3"
       data-name="Group 3"
       transform="translate(154.596,236.596)">
      <path
         id="Path_14"
         data-name="Path 14"
         d="m -104.4405,69.449814 h 5.068893 v 2.981513 H -100.3852 V 71.43749 h -1.01453 v -0.993838 h -1.01359 v 0.993838 h -1.01359 v -0.993838 h -1.01359 z"
         fill="#fff"
         style="fill:#fd5600;fill-opacity:1;stroke-width:0.924186" />
      <path
         id="Path_15"
         data-name="Path 15"
         d="m -112.55019,69.449814 v 6.955034 h 7.0933 v -6.955034 z m 6.0825,5.963942 h -5.06891 v -4.970104 h 5.06891 z"
         fill="#fff"
         style="fill:#fd5600;fill-opacity:1;stroke-width:0.924186" />
      <path
         id="Path_16"
         data-name="Path 16"
         d="m -98.358016,69.449814 v 6.955034 h 7.093289 v -6.955034 z m 6.082496,5.963942 h -5.067966 v -4.970104 h 5.067966 z"
         fill="#fff"
         style="fill:#fd5600;fill-opacity:1;stroke-width:0.924186" />
      <rect
         id="Rectangle_5"
         data-name="Rectangle 5"
         width="3.0407796"
         height="2.9815133"
         fill="#fff"
         style="fill:#fd5600;fill-opacity:1;stroke-width:0.924186"
         x="-110.523"
         y="71.437492" />
      <rect
         id="Rectangle_6"
         data-name="Rectangle 6"
         width="3.0407796"
         height="2.9815133"
         fill="#fff"
         style="fill:#fd5600;fill-opacity:1;stroke-width:0.924186"
         x="-96.330833"
         y="71.437492" />
      <rect
         id="Rectangle_7"
         data-name="Rectangle 7"
         width="1.0135932"
         height="0.99383777"
         fill="#fff"
         style="fill:#fd5600;fill-opacity:1;stroke-width:0.924186"
         x="-104.44051"
         y="72.431328" />
      <path
         id="Path_17"
         data-name="Path 17"
         d="m -101.39973,72.431327 h 1.0136 v 0.993838 h 1.012655 v 0.993838 h -4.053435 v -0.993838 h 2.02718 z"
         fill="#fff"
         style="fill:#fd5600;fill-opacity:1;stroke-width:0.924186" />
      <rect
         id="Rectangle_8"
         data-name="Rectangle 8"
         width="1.0135932"
         height="0.99383777"
         fill="#fff"
         style="fill:#fd5600;fill-opacity:1;stroke-width:0.924186"
         x="-104.44051"
         y="75.413757" />
      <rect
         id="Rectangle_9"
         data-name="Rectangle 9"
         width="1.0135932"
         height="0.99383777"
         fill="#fff"
         style="fill:#fd5600;fill-opacity:1;stroke-width:0.924186"
         x="-102.41331"
         y="75.413757" />
      <path
         id="Path_18"
         data-name="Path 18"
         d="m -110.52301,77.401432 h 1.0136 v 0.993837 h 1.01453 v -0.993837 h 3.03799 v 0.993837 h -1.0108 v 0.993838 h -1.01359 v 0.993838 h 1.01359 v 0.993838 h 3.04078 v -0.993838 h 1.01359 v 0.993838 h 1.01359 v 0.993838 h 1.0136 v 0.993838 h -1.01266 v 0.993837 h -1.01453 v 0.993838 h 1.01359 v 0.993838 h 2.028123 v 1.989506 h 2.027188 v 1.987675 h -1.013597 v -0.990177 h -1.013591 v 0.993838 h -1.013593 v -2.986089 h -1.01359 v 1.992251 h -2.02812 v -0.997498 h 1.01359 v -1.988591 h -2.02718 v -1.987676 h 1.01359 v -0.993837 h -1.01359 v -0.993838 h -3.04078 v -0.993838 h -1.0136 v -1.988591 h -1.01453 v 0.993838 h -1.0136 v 1.987676 h -1.01359 v -0.992923 h -1.01359 v -0.994753 h 1.01359 v -0.993838 h 1.01359 z"
         fill="#fff"
         style="fill:#fd5600;fill-opacity:1;stroke-width:0.924186" />
      <rect
         id="Rectangle_10"
         data-name="Rectangle 10"
         width="1.0135932"
         height="1.9876755"
         fill="#fff"
         style="fill:#fd5600;fill-opacity:1;stroke-width:0.924186"
         x="-95.317238"
         y="77.401428" />
      <path
         id="Path_19"
         data-name="Path 19"
         d="m -92.271787,77.401432 h 1.013593 v 2.981513 h -2.030919 v -1.987676 h 1.017326 z"
         fill="#fff"
         style="fill:#fd5600;fill-opacity:1;stroke-width:0.924186" />
      <rect
         id="Rectangle_11"
         data-name="Rectangle 11"
         width="1.0135932"
         height="0.99383777"
         fill="#fff"
         style="fill:#fd5600;fill-opacity:1;stroke-width:0.924186"
         x="-112.55019"
         y="78.395271" />
      <rect
         id="Rectangle_12"
         data-name="Rectangle 12"
         width="1.0135932"
         height="0.99383777"
         fill="#fff"
         style="fill:#fd5600;fill-opacity:1;stroke-width:0.924186"
         x="-106.4677"
         y="79.389107" />
      <path
         id="Path_20"
         data-name="Path 20"
         d="m -98.358016,78.395269 v -0.993837 h -1.013591 v -1.987676 h -1.010793 v 1.987676 h -2.03092 v -0.993838 h -1.01359 v 0.993838 h -1.01359 v 0.993837 h -1.0136 v 0.993838 h 1.0136 v 0.992008 h 1.01359 v -0.992008 h 2.02718 v -0.993838 h 1.01733 v 0.993838 h -1.01639 v 1.987676 h 1.01639 v 0.993838 h 1.013589 v 0.993838 h 1.013603 v -0.992923 h 1.013588 v -3.976267 z m 0,2.981514 h -1.013591 v -1.986761 h 1.013591 z"
         fill="#fff"
         style="fill:#fd5600;fill-opacity:1;stroke-width:0.924186" />
      <rect
         id="Rectangle_13"
         data-name="Rectangle 13"
         width="1.0135932"
         height="0.99383777"
         fill="#fff"
         style="fill:#fd5600;fill-opacity:1;stroke-width:0.924186"
         x="-96.330833"
         y="79.389107" />
      <rect
         id="Rectangle_14"
         data-name="Rectangle 14"
         width="1.0135932"
         height="0.99383777"
         fill="#fff"
         style="fill:#fd5600;fill-opacity:1;stroke-width:0.924186"
         x="-96.330833"
         y="81.377701" />
      <path
         id="Path_21"
         data-name="Path 21"
         d="m -92.271787,81.377698 h 1.013593 v 4.970104 h -1.013593 v -1.989506 h -1.017326 v -1.98676 h 1.017326 z"
         fill="#fff"
         style="fill:#fd5600;fill-opacity:1;stroke-width:0.924186" />
      <path
         id="Path_22"
         data-name="Path 22"
         d="m -97.344419,82.371536 h 1.013593 v 1.987675 h 1.013592 v -1.987675 h 1.013594 v 2.985174 h -2.027186 v 0.993838 h -1.013593 v -1.991337 h -1.013597 v -0.993837 h 1.013597 z"
         fill="#fff"
         style="fill:#fd5600;fill-opacity:1;stroke-width:0.924186" />
      <path
         id="Path_23"
         data-name="Path 23"
         d="m -112.55019,83.365374 v 6.955034 h 7.0933 v -6.955034 z m 6.0825,5.963942 h -5.06891 v -4.969189 h 5.06891 z"
         fill="#fff"
         style="fill:#fd5600;fill-opacity:1;stroke-width:0.924186" />
      <rect
         id="Rectangle_15"
         data-name="Rectangle 15"
         width="1.0135932"
         height="1.9876755"
         fill="#fff"
         style="fill:#fd5600;fill-opacity:1;stroke-width:0.924186"
         x="-99.371605"
         y="84.359215" />
      <rect
         id="Rectangle_16"
         data-name="Rectangle 16"
         width="3.0407796"
         height="2.9815133"
         fill="#fff"
         style="fill:#fd5600;fill-opacity:1;stroke-width:0.924186"
         x="-110.523"
         y="85.35305" />
      <path
         id="Path_24"
         data-name="Path 24"
         d="m -94.30364,85.353049 h 1.013593 v 0.993838 h 1.013594 v 0.998414 h -2.027187 z"
         fill="#fff"
         style="fill:#fd5600;fill-opacity:1;stroke-width:0.924186" />
      <rect
         id="Rectangle_17"
         data-name="Rectangle 17"
         width="1.0135932"
         height="0.99383777"
         fill="#fff"
         style="fill:#fd5600;fill-opacity:1;stroke-width:0.924186"
         x="-104.44051"
         y="87.340721" />
      <rect
         id="Rectangle_18"
         data-name="Rectangle 18"
         width="1.0135932"
         height="0.99383777"
         fill="#fff"
         style="fill:#fd5600;fill-opacity:1;stroke-width:0.924186"
         x="-96.330833"
         y="87.340721" />
      <rect
         id="Rectangle_19"
         data-name="Rectangle 19"
         width="1.0135932"
         height="0.99383777"
         fill="#fff"
         style="fill:#fd5600;fill-opacity:1;stroke-width:0.924186"
         x="-92.276451"
         y="87.340721" />
      <path
         id="Path_25"
         data-name="Path 25"
         d="m -94.30364,88.335478 h 2.027187 v 0.997498 h 1.013593 v 0.993838 h -3.04078 z"
         fill="#fff"
         style="fill:#fd5600;fill-opacity:1;stroke-width:0.924186" />
      <rect
         id="Rectangle_20"
         data-name="Rectangle 20"
         width="1.0135932"
         height="0.99383777"
         fill="#fff"
         style="fill:#fd5600;fill-opacity:1;stroke-width:0.924186"
         x="-96.330833"
         y="89.3284" />
    </g>
  </g>
</svg>
