<svg xmlns="http://www.w3.org/2000/svg" width="21.292" height="21.163" viewBox="0 0 21.292 21.163">
  <g id="Group_55" data-name="Group 55" transform="translate(-9.912 -970.158)">
    <g id="noun_play_1940076" transform="translate(9.912 970.158)">
      <g id="Group_81" data-name="Group 81" transform="translate(0 0)">
        <path id="Path_99" data-name="Path 99" d="M21.122,2.5H5.192A2.692,2.692,0,0,0,2.5,5.176V20.987a2.692,2.692,0,0,0,2.692,2.676H21.1a2.692,2.692,0,0,0,2.692-2.676V5.176A2.659,2.659,0,0,0,21.122,2.5Zm.942,18.509a.969.969,0,0,1-.965.959H5.192a.969.969,0,0,1-.965-.959V5.176a.969.969,0,0,1,.965-.959H21.1a.969.969,0,0,1,.965.959V21.009Z" transform="translate(-2.5 -2.5)" fill="#818fa9"/>
        <path id="Path_100" data-name="Path 100" d="M12.291,13.488c-.257.152-.352.1-.352-.2V5.833c0-.3.1-.353.352-.2l6.255,3.707c.261.155.261.288,0,.443ZM18.925,8.7,12.67,4.992a.917.917,0,0,0-1.474.84v7.455a.917.917,0,0,0,1.474.84l6.255-3.707A.942.942,0,0,0,18.925,8.7Z" transform="translate(-4.056 1.021)" fill="#818fa9" stroke="#818fa9" stroke-width="0.7" fill-rule="evenodd"/>
      </g>
    </g>
  </g>
</svg>
