<svg xmlns="http://www.w3.org/2000/svg" width="40" height="40" viewBox="0 0 40 40">
  <g id="Whats_app" data-name="Whats app" transform="translate(-42 -306)">
    <g id="Rectangle_4" data-name="Rectangle 4" transform="translate(42 306)" fill="none" stroke="#fff" stroke-width="2">
      <rect width="40" height="40" rx="20" stroke="none"/>
      <rect x="1" y="1" width="38" height="38" rx="19" fill="none"/>
    </g>
    <g id="iconfinder_whatsapp_1217093" transform="translate(39.077 305.63)">
      <path id="Path_4" data-name="Path 4" d="M10.8,32.575c.337-1.012.655-1.96.973-2.908s.6-1.892.963-2.816a1.346,1.346,0,0,0-.108-1.261,11.548,11.548,0,0,1-1.217-7.572A11.409,11.409,0,0,1,14.28,12.1,11.628,11.628,0,0,1,23.729,8.16a11.438,11.438,0,0,1,7.234,2.928,11.9,11.9,0,0,1,3.6,12.264A11.587,11.587,0,0,1,30.342,29.5a11.7,11.7,0,0,1-9.693,2.18,10.608,10.608,0,0,1-3.04-1.1.525.525,0,0,0-.459-.044q-2.728.88-5.46,1.75C11.416,32.37,11.137,32.463,10.8,32.575Zm3.094-3.065c.1-.024.142-.034.186-.049,1.139-.362,2.278-.728,3.422-1.08a.534.534,0,0,1,.357.044c.494.244.968.538,1.476.753a9.541,9.541,0,0,0,6.428.42,9.7,9.7,0,0,0,5.959-4.619,9.519,9.519,0,0,0,1.207-6.447,9.931,9.931,0,0,0-11.384-8.271,9.943,9.943,0,0,0-8.08,7.674,9.579,9.579,0,0,0,1.315,7.371,1.236,1.236,0,0,1,.108,1.266C14.53,27.526,14.231,28.5,13.894,29.511Z" transform="translate(0 0)" fill="#fff"/>
      <path id="Path_5" data-name="Path 5" d="M154.535,140.891a2.109,2.109,0,0,1-1.45,1.96,3.886,3.886,0,0,1-2.889.177c-.886-.3-1.783-.6-2.638-.967a9.909,9.909,0,0,1-2.894-2.015,14.723,14.723,0,0,1-2.378-2.936,3.724,3.724,0,0,1-.647-2.414,3.022,3.022,0,0,1,1.434-2.224,1.448,1.448,0,0,1,.631-.177,6.337,6.337,0,0,1,.829.036.507.507,0,0,1,.433.322c.2.436.386.871.579,1.311.13.295.229.6.386.889a.735.735,0,0,1-.177.921,6.69,6.69,0,0,1-.683.653.365.365,0,0,0-.1.545,8.583,8.583,0,0,0,2.294,2.441,11.12,11.12,0,0,0,2.07,1.085.5.5,0,0,0,.589-.091c.36-.358.725-.712,1.079-1.075.229-.231.344-.277.652-.141.892.39,1.773.794,2.659,1.2A.409.409,0,0,1,154.535,140.891Z" transform="translate(-124.852 -117.671)" fill="#fff"/>
    </g>
  </g>
</svg>
