<svg xmlns="http://www.w3.org/2000/svg" width="48" height="33.6" viewBox="0 0 48 33.6">
  <g id="iconfinder_1_Youtube_colored_svg_5296521" transform="translate(0 -76.801)">
    <path id="Path_96" data-name="Path 96" d="M47,82.048A6.01,6.01,0,0,0,42.753,77.8C39.01,76.8,24,76.8,24,76.8s-15.01,0-18.754,1A6.011,6.011,0,0,0,1,82.048C0,85.791,0,93.6,0,93.6s0,7.81,1,11.553A6.012,6.012,0,0,0,5.246,109.4c3.744,1,18.754,1,18.754,1s15.01,0,18.753-1A6.011,6.011,0,0,0,47,105.154c1-3.743,1-11.553,1-11.553S48,85.791,47,82.048Z" fill="#ed1f24"/>
    <path id="Path_97" data-name="Path 97" d="M204.8,194.9l13.593-7.848L204.8,179.2Z" transform="translate(-186.203 -93.448)" fill="#fff"/>
  </g>
</svg>
